<svg width="24" height="25" viewBox="0 0 24 25" xmlns="http://www.w3.org/2000/svg">
<path d="M11.2731 12.711C11.3835 12.711 11.4731 12.8005 11.4731 12.911V20.0361C11.4731 20.1465 11.5626 20.2361 11.6731 20.2361H12.2731C12.3835 20.2361 12.4731 20.1465 12.4731 20.0361V12.911C12.4731 12.8005 12.5626 12.711 12.6731 12.711H19.8118C19.9223 12.711 20.0118 12.6214 20.0118 12.511V11.911C20.0118 11.8005 19.9223 11.711 19.8118 11.711H12.6731C12.5626 11.711 12.4731 11.6214 12.4731 11.511V4.39263C12.4731 4.28217 12.3835 4.19263 12.2731 4.19263L11.6731 4.19263C11.5626 4.19263 11.4731 4.28217 11.4731 4.39263V11.511C11.4731 11.6214 11.3835 11.711 11.2731 11.711H4.18804C4.07758 11.711 3.98804 11.8005 3.98804 11.911V12.511C3.98804 12.6214 4.07758 12.711 4.18804 12.711H11.2731Z" fill="white"/>
</svg>
