<svg width="24" height="25" viewBox="0 0 24 25" xmlns="http://www.w3.org/2000/svg">
<path fill-rule="evenodd" clip-rule="evenodd" d="M12 21.199C16.9706 21.199 21 17.1695 21 12.199C21 7.22841 16.9706 3.19897 12 3.19897C7.02944 3.19897 3 7.22841 3 12.199C3 17.1695 7.02944 21.199 12 21.199ZM12 22.199C17.5228 22.199 22 17.7218 22 12.199C22 6.67613 17.5228 2.19897 12 2.19897C6.47715 2.19897 2 6.67613 2 12.199C2 17.7218 6.47715 22.199 12 22.199ZM18.5446 9.96466C18.6227 9.88656 18.6227 9.75992 18.5446 9.68182L18.1203 9.25755C18.0422 9.17945 17.9156 9.17945 17.8375 9.25755L15.2185 11.6677L11.5799 15.0973C11.502 15.1752 11.3756 15.1754 11.2974 15.0977L7.76416 11.7453C7.68584 11.6674 7.55921 11.6677 7.48132 11.746L7.0582 12.1714C6.98031 12.2497 6.98065 12.3764 7.05896 12.4543L11.2994 16.51C11.3775 16.5877 11.5039 16.5875 11.5818 16.5096L18.5446 9.96466Z" fill="white"/>
</svg>
