<svg width="25" height="25" viewBox="0 0 25 25" xmlns="http://www.w3.org/2000/svg">
<path clip-rule="evenodd" d="M17.4016 10.175C17.2911 10.1749 17.2017 10.0852 17.2018 9.97477L17.2026 9.37477C17.2028 9.26431 17.2924 9.17489 17.4029 9.17503L19.2037 9.17732C19.3462 9.1775 19.4429 9.03289 19.3838 8.90319C18.1279 6.14443 15.4011 4.17247 12.1092 4.16827C8.46334 4.16362 5.39679 6.68426 4.44267 10.0099C4.41764 10.0971 4.3384 10.1584 4.24766 10.1582L3.6516 10.1575C3.52344 10.1573 3.42848 10.0381 3.4603 9.9139C4.45391 6.03745 7.99818 3.16303 12.2105 3.1684C15.416 3.17249 18.2 4.85363 19.7953 7.3658C19.9076 7.54271 20.205 7.46617 20.2053 7.2566L20.2064 6.3786C20.2066 6.26814 20.2962 6.17871 20.4067 6.17885L21.0067 6.17962C21.1171 6.17976 21.2066 6.26942 21.2064 6.37988L21.2018 9.97987C21.2017 10.0903 21.112 10.1798 21.0016 10.1796L17.4016 10.175ZM20.938 14.4229C19.9443 18.2993 16.4001 21.1737 12.1877 21.1684C8.98223 21.1643 6.19828 19.4831 4.60299 16.971C4.49065 16.7941 4.1932 16.8706 4.19294 17.0802L4.19182 17.9582C4.19168 18.0686 4.10202 18.1581 3.99156 18.1579L3.39156 18.1572C3.28111 18.157 3.19168 18.0674 3.19182 17.9569L3.19641 14.3569C3.19655 14.2464 3.28621 14.157 3.39666 14.1572L6.99666 14.1617C7.10712 14.1619 7.19655 14.2515 7.19641 14.362L7.19564 14.962C7.1955 15.0725 7.10584 15.1619 6.99539 15.1617L5.19459 15.1594C5.05209 15.1593 4.95537 15.3039 5.01442 15.4336C6.27032 18.1923 8.9972 20.1643 12.289 20.1685C15.9349 20.1732 19.0015 17.6525 19.9556 14.3269C19.9806 14.2396 20.0598 14.1784 20.1506 14.1785L20.7466 14.1793C20.8748 14.1794 20.9698 14.2987 20.938 14.4229Z" fill="white"/>
</svg>
